<svg width="24" height="24" viewBox="0 0 24 24" fill="none" xmlns="http://www.w3.org/2000/svg">
<path d="M13.7138 10.6912L13.6575 10.7362L13.6013 10.6912C13.6386 10.6862 13.6764 10.6862 13.7138 10.6912Z" fill="#444444"/>
<path d="M21.5775 5.43395C21.639 5.38566 21.6839 5.31939 21.7059 5.24438C21.7279 5.16937 21.726 5.08935 21.7005 5.01547C21.6749 4.9416 21.6269 4.87754 21.5632 4.83223C21.4994 4.78693 21.4232 4.76262 21.345 4.7627H10.125C10.0159 3.87727 9.60967 3.05502 8.97279 2.4303C8.3359 1.80558 7.50597 1.41532 6.6186 1.32329C5.73123 1.23125 4.83887 1.44288 4.08734 1.9236C3.3358 2.40432 2.76951 3.12571 2.48099 3.96989C2.19247 4.81408 2.19877 5.73117 2.49888 6.57131C2.79898 7.41145 3.37515 8.12498 4.13322 8.59531C4.8913 9.06565 5.78649 9.26498 6.67251 9.16075C7.55853 9.05652 8.38301 8.65488 9.01124 8.02145L9.23624 8.1977C9.25338 8.21352 9.27225 8.22736 9.29249 8.23895L13.2825 11.3965V20.2052L9.70499 21.9752C9.62915 22.0127 9.5682 22.0748 9.53201 22.1513C9.49583 22.2278 9.48653 22.3143 9.50562 22.3967C9.52471 22.4792 9.57108 22.5528 9.63721 22.6056C9.70334 22.6584 9.78536 22.6873 9.86999 22.6877H17.445C17.5296 22.6873 17.6116 22.6584 17.6778 22.6056C17.7439 22.5528 17.7903 22.4792 17.8094 22.3967C17.8285 22.3143 17.8192 22.2278 17.783 22.1513C17.7468 22.0748 17.6858 22.0127 17.61 21.9752L14.0325 20.2015V11.3965L21.5775 5.43395ZM6.21749 8.4377C5.60773 8.43842 5.01056 8.26423 4.49682 7.93578C3.98307 7.60734 3.57432 7.13843 3.31904 6.58468C3.06375 6.03093 2.97266 5.41558 3.05656 4.81162C3.14046 4.20766 3.39584 3.64043 3.79239 3.17723C4.18895 2.71404 4.71004 2.3743 5.29386 2.19833C5.87767 2.02236 6.49971 2.01753 7.08619 2.18443C7.67267 2.35133 8.19896 2.68294 8.60265 3.13993C9.00635 3.59692 9.27049 4.16012 9.36374 4.7627H5.96999C5.89234 4.76372 5.81688 4.78865 5.7539 4.8341C5.69093 4.87955 5.6435 4.94332 5.61808 5.0167C5.59266 5.09009 5.59049 5.16953 5.61186 5.2442C5.63323 5.31886 5.6771 5.38513 5.73749 5.43395L8.41874 7.5527C7.82798 8.1227 7.0384 8.44014 6.21749 8.4377ZM9.21374 7.2227L9.20999 7.21896C9.20624 7.2152 9.20249 7.2152 9.19874 7.21145L7.04999 5.5127H20.265L19.8075 5.87645C17.9739 5.89888 16.1515 6.16625 14.3887 6.67146C12.8241 7.10179 11.2239 7.39045 9.60749 7.53395L9.21374 7.2227ZM15.8437 21.9377H11.475L13.6575 20.8577L15.8437 21.9377ZM13.7137 10.6915L13.6575 10.7365L13.6012 10.6915L10.455 8.2052C11.845 8.03549 13.2211 7.76605 14.5725 7.39895C15.9559 7.00877 17.376 6.76247 18.81 6.66396L13.7137 10.6915Z" fill="#444444"/>
<path d="M6.21674 3.9375C6.11728 3.9375 6.0219 3.89799 5.95157 3.82766C5.88124 3.75734 5.84174 3.66196 5.84174 3.5625V2.8125C5.84174 2.71304 5.88124 2.61766 5.95157 2.54734C6.0219 2.47701 6.11728 2.4375 6.21674 2.4375C6.31619 2.4375 6.41157 2.47701 6.4819 2.54734C6.55223 2.61766 6.59174 2.71304 6.59174 2.8125V3.5625C6.59174 3.66196 6.55223 3.75734 6.4819 3.82766C6.41157 3.89799 6.31619 3.9375 6.21674 3.9375ZM5.03924 4.41638C4.98924 4.41638 4.93975 4.40637 4.8937 4.38691C4.84765 4.36746 4.80596 4.33897 4.77111 4.30313L4.24724 3.76575C4.21218 3.73063 4.18444 3.68891 4.16563 3.64299C4.14682 3.59708 4.13731 3.54789 4.13765 3.49827C4.13799 3.44865 4.14817 3.39959 4.1676 3.35394C4.18704 3.30828 4.21534 3.26694 4.25087 3.2323C4.2864 3.19767 4.32845 3.17043 4.37458 3.15216C4.42072 3.13389 4.47002 3.12496 4.51963 3.12589C4.56924 3.12681 4.61817 3.13757 4.6636 3.15755C4.70902 3.17752 4.75002 3.20631 4.78424 3.24225L5.30774 3.77963C5.35922 3.83244 5.39398 3.89927 5.40768 3.97174C5.42137 4.04421 5.41339 4.11912 5.38474 4.18708C5.35608 4.25504 5.30802 4.31304 5.24656 4.35383C5.18511 4.39461 5.11299 4.41637 5.03924 4.41638ZM7.39461 4.41638C7.32082 4.41644 7.24865 4.39474 7.18714 4.35398C7.12563 4.31323 7.07751 4.25523 7.04881 4.18725C7.02011 4.11927 7.01209 4.04434 7.02578 3.97183C7.03946 3.89932 7.07423 3.83246 7.12574 3.77963L7.64924 3.24225C7.71866 3.17099 7.81354 3.13023 7.91302 3.12892C8.01249 3.12762 8.10841 3.16589 8.17967 3.23531C8.25093 3.30473 8.2917 3.39962 8.293 3.49909C8.2943 3.59857 8.25603 3.69449 8.18661 3.76575L7.66311 4.30313C7.62818 4.33896 7.58642 4.36745 7.54031 4.3869C7.4942 4.40635 7.44466 4.41637 7.39461 4.41638ZM4.51574 7.37063C4.44198 7.37062 4.36986 7.34886 4.30841 7.30808C4.24696 7.26729 4.19889 7.20929 4.17024 7.14133C4.14158 7.07337 4.1336 6.99846 4.14729 6.92599C4.16099 6.85352 4.19575 6.78669 4.24724 6.73387L4.77111 6.19687C4.80508 6.15995 4.84611 6.13022 4.89177 6.10945C4.93744 6.08867 4.98681 6.07726 5.03696 6.07591C5.08711 6.07455 5.13702 6.08328 5.18374 6.10156C5.23046 6.11984 5.27303 6.14731 5.30895 6.18234C5.34486 6.21738 5.37337 6.25926 5.39281 6.30551C5.41224 6.35176 5.4222 6.40145 5.42208 6.45162C5.42197 6.50178 5.41179 6.55142 5.39215 6.59759C5.37251 6.64375 5.3438 6.6855 5.30774 6.72037L4.78424 7.25775C4.74928 7.29354 4.70752 7.32196 4.6614 7.34135C4.61529 7.36074 4.56576 7.37069 4.51574 7.37063ZM4.52924 5.625H3.77924C3.67978 5.625 3.5844 5.58549 3.51407 5.51516C3.44374 5.44484 3.40424 5.34946 3.40424 5.25C3.40424 5.15054 3.44374 5.05516 3.51407 4.98483C3.5844 4.91451 3.67978 4.875 3.77924 4.875H4.52924C4.62869 4.875 4.72407 4.91451 4.7944 4.98483C4.86473 5.05516 4.90424 5.15054 4.90424 5.25C4.90424 5.34946 4.86473 5.44484 4.7944 5.51516C4.72407 5.58549 4.62869 5.625 4.52924 5.625ZM6.21599 8.06175C6.11653 8.06175 6.02115 8.02224 5.95082 7.95191C5.88049 7.88159 5.84099 7.78621 5.84099 7.68675V6.93675C5.84099 6.83729 5.88049 6.74191 5.95082 6.67158C6.02115 6.60126 6.11653 6.56175 6.21599 6.56175C6.31544 6.56175 6.41082 6.60126 6.48115 6.67158C6.55148 6.74191 6.59099 6.83729 6.59099 6.93675V7.68675C6.59099 7.78621 6.55148 7.88159 6.48115 7.95191C6.41082 8.02224 6.31544 8.06175 6.21599 8.06175Z" fill="#444444"/>
</svg>
