<svg width="24" height="24" viewBox="0 0 24 24" fill="none" xmlns="http://www.w3.org/2000/svg">
<g clip-path="url(#clip0_323_2686)">
<path d="M18.1334 22.9332H5.3334C2.3934 22.9332 0 20.5399 0 17.5998V12.7998H23.4666V17.5998C23.4666 20.5398 21.0732 22.9332 18.1334 22.9332ZM1.0666 13.8664V17.5998C1.0666 19.9531 2.9801 21.8664 5.3334 21.8664H18.1334C20.4867 21.8664 22.4 19.9531 22.4 17.5998V13.8664H1.0666Z" fill="#444444"/>
<path d="M6.40001 22.4H7.46661V24H6.40001V22.4ZM16 22.4H17.0666V24H16V22.4ZM4.26661 13.3334H3.20001V3.7334C3.20001 1.67325 4.87326 0 6.93341 0C8.99341 0 10.6666 1.67325 10.6666 3.7334V4.2666H9.60001V3.7334C9.60001 2.25995 8.40666 1.0666 6.93341 1.0666C5.45996 1.0666 4.26661 2.25995 4.26661 3.7334V13.3334Z" fill="#444444"/>
<path d="M13.8666 8.5334H6.40002V7.4666C6.40002 5.4066 8.07327 3.7334 10.1334 3.7334C12.1934 3.7334 13.8666 5.40665 13.8666 7.4666V8.5334ZM7.46662 7.4666H12.8C12.8 5.99335 11.6067 4.8 10.1334 4.8C8.65997 4.8 7.46662 5.99335 7.46662 7.4666Z" fill="#444444"/>
</g>
<defs>
<clipPath id="clip0_323_2686">
<rect width="24" height="24" fill="white"/>
</clipPath>
</defs>
</svg>
