<svg width="24" height="22" viewBox="0 0 24 22" fill="none" xmlns="http://www.w3.org/2000/svg">
<path d="M23.3822 19.3787H23.0458V18.4638C23.0458 18.1467 22.7878 17.8888 22.4708 17.8888H21.5721V3.36192H23.2872C23.6312 3.36192 23.911 3.08207 23.911 2.7381V0.998811C23.911 0.654843 23.6312 0.375 23.2872 0.375H18.4679C18.378 0.375 18.2918 0.410696 18.2283 0.474236C18.1648 0.537775 18.1291 0.623953 18.1291 0.713812C18.1291 0.80367 18.1648 0.889848 18.2283 0.953388C18.2918 1.01693 18.378 1.05262 18.4679 1.05262H23.2334V2.6842H0.766545V1.05267H16.8579C16.9478 1.05267 17.0339 1.01697 17.0975 0.953435C17.161 0.889895 17.1967 0.803717 17.1967 0.713859C17.1967 0.624 17.161 0.537822 17.0975 0.474283C17.0339 0.410743 16.9478 0.375047 16.8579 0.375047H0.712686C0.368718 0.375047 0.0888748 0.65489 0.0888748 0.998858V2.73815C0.0888748 3.08212 0.368718 3.36196 0.712686 3.36196H2.42779V9.82845C2.42779 9.91831 2.46349 10.0045 2.52703 10.068C2.59057 10.1316 2.67675 10.1673 2.7666 10.1673C2.85646 10.1673 2.94264 10.1316 3.00618 10.068C3.06972 10.0045 3.10542 9.91831 3.10542 9.82845V3.36192H20.8945V17.8888H19.5344V12.1201C19.5344 7.96564 16.1545 4.58568 12 4.58568C7.84545 4.58568 4.46554 7.9656 4.46554 12.1201V17.8888H3.10546V11.4604C3.10546 11.4159 3.0967 11.3719 3.07967 11.3307C3.06264 11.2896 3.03769 11.2523 3.00623 11.2208C2.97477 11.1894 2.93741 11.1644 2.89631 11.1474C2.8552 11.1304 2.81114 11.1216 2.76665 11.1216C2.72216 11.1216 2.6781 11.1304 2.63699 11.1474C2.59589 11.1644 2.55854 11.1894 2.52707 11.2208C2.49561 11.2523 2.47066 11.2896 2.45363 11.3307C2.4366 11.3719 2.42784 11.4159 2.42784 11.4604V17.8888H1.52915C1.21209 17.8888 0.954139 18.1468 0.954139 18.4638V19.3787H0.617718C0.277124 19.3787 0 19.6558 0 19.9965V21.0076C0 21.3482 0.277124 21.6253 0.617764 21.6253H23.3822C23.7228 21.6253 24 21.3482 24 21.0076V19.9965C24 19.6558 23.7228 19.3787 23.3822 19.3787ZM5.14316 12.1201C5.14316 8.33928 8.21914 5.26335 12 5.26335C15.7808 5.26335 18.8567 8.33928 18.8567 12.1201V17.8888H18.001V17.777C18.001 16.8802 17.2714 16.1506 16.3746 16.1506H14.9584C15.6374 15.105 15.4783 13.8728 15.4697 13.8109C15.46 13.7408 15.4285 13.6755 15.3798 13.6242C15.3311 13.5729 15.2675 13.5381 15.198 13.5248C15.1285 13.5114 15.0566 13.5201 14.9924 13.5497C14.9281 13.5793 14.8747 13.6283 14.8397 13.6898C14.8372 13.694 14.5928 14.1216 14.27 14.5454C13.8063 15.1542 13.5493 15.2754 13.4628 15.2994C13.5169 15.2108 13.6213 15.0775 13.7096 14.9648C14.07 14.5048 14.6146 13.8096 14.9081 12.6671C15.151 11.7216 14.8849 10.8261 14.1387 10.0774C13.5982 9.53506 12.9929 9.26234 12.9674 9.251C12.9028 9.2223 12.8308 9.21454 12.7616 9.2288C12.6923 9.24305 12.6293 9.27861 12.5813 9.3305C12.5332 9.38242 12.5026 9.44807 12.4937 9.51826C12.4848 9.58844 12.4981 9.65965 12.5317 9.7219C12.6762 9.98975 12.7756 10.3382 12.7399 10.4447C12.7305 10.4475 12.7125 10.4513 12.6826 10.4524C12.6725 10.4528 12.6624 10.453 12.6523 10.4531C12.451 10.4531 12.3627 10.3714 12.3083 10.3003C11.9731 9.8622 12.1387 8.62789 12.3218 7.95299C12.3414 7.88089 12.3367 7.80433 12.3083 7.73521C12.2799 7.66609 12.2295 7.60829 12.1648 7.57081C12.1002 7.53333 12.025 7.51826 11.9509 7.52796C11.8768 7.53766 11.808 7.57158 11.7552 7.62444C11.5708 7.80889 9.95914 9.46245 10.1454 10.7039C10.2363 11.3102 10.6619 11.7271 11.0038 12.062C11.1715 12.2262 11.4011 12.4511 11.4016 12.5548C11.4017 12.5852 11.3678 12.6373 11.3108 12.6943C11.2469 12.7582 11.1965 12.7669 11.1557 12.7669H11.1556C10.7977 12.7669 10.1808 12.0732 9.87678 11.6045C9.84919 11.5619 9.81238 11.5261 9.76906 11.4996C9.72575 11.4731 9.67704 11.4567 9.62654 11.4516C9.57603 11.4464 9.52502 11.4527 9.47727 11.4699C9.42952 11.4872 9.38625 11.5149 9.35065 11.5511C9.31451 11.5879 8.4658 12.4746 8.51009 14.4377C8.51075 14.466 8.51169 14.4941 8.513 14.5221C8.54042 15.1109 8.73805 15.6697 9.08154 16.1507H7.62528C6.72847 16.1507 5.99891 16.8803 5.99891 17.777V17.8889H5.14316V12.1201ZM11.4781 11.5778C11.1806 11.2864 10.8728 10.9849 10.8156 10.6033C10.7538 10.1911 11.0642 9.58545 11.4525 9.03725C11.4084 9.63139 11.4524 10.2963 11.7698 10.7115C11.9793 10.9857 12.2864 11.1319 12.6524 11.1306C12.6708 11.1306 12.6897 11.1302 12.7087 11.1295C13.0848 11.115 13.2563 10.9101 13.3251 10.7892C13.4027 10.6529 13.4275 10.4949 13.4211 10.3344C13.9437 10.7629 14.5119 11.4859 14.2518 12.4984C13.9936 13.5034 13.5212 14.1065 13.1762 14.5468C13.0089 14.7604 12.8767 14.9292 12.8061 15.1001C12.6945 15.3705 12.7566 15.6315 12.9765 15.8163C13.1063 15.9253 13.263 15.9829 13.4297 15.9829H13.43C13.8073 15.9828 14.211 15.7029 14.6925 15.1051C14.5909 15.4603 14.409 15.8376 14.0886 16.1506H9.97948C9.49831 15.7014 9.21908 15.1162 9.18997 14.4905C9.18887 14.4678 9.18809 14.4451 9.18762 14.4224C9.16494 13.4163 9.40704 12.7497 9.60143 12.3804C9.95384 12.8268 10.5507 13.4444 11.1557 13.4444H11.1559C11.3936 13.4443 11.6128 13.3506 11.7901 13.1734C11.9831 12.9803 12.0805 12.7709 12.0793 12.5511C12.0773 12.1648 11.7863 11.8797 11.4781 11.5778ZM9.85029 16.8282H16.3746C16.8977 16.8282 17.3233 17.2538 17.3233 17.7769V17.8888H6.67658V17.7769C6.67658 17.2538 7.10216 16.8282 7.62528 16.8282H9.85029ZM1.63181 18.5665H22.368V19.3787H1.63181V18.5665ZM23.3223 20.9477H0.677671V20.0564H23.3223V20.9477Z" fill="#444444"/>
</svg>
