<svg width="20" height="24" viewBox="0 0 20 24" fill="none" xmlns="http://www.w3.org/2000/svg">
<path d="M15.0731 10.5414C14.787 10.5414 14.4993 10.5163 14.2125 10.4648C14.1097 10.4464 14.0183 10.3873 13.9585 10.3005C13.8987 10.2138 13.8753 10.1065 13.8935 10.0022C13.9117 9.898 13.97 9.80538 14.0556 9.74473C14.1412 9.68409 14.247 9.66039 14.3498 9.67886C15.0063 9.79667 15.681 9.75234 16.317 9.54961C16.953 9.34688 17.5314 8.99173 18.0032 8.51424C19.6174 6.87763 19.6174 4.21485 18.0032 2.57824C16.389 0.941628 13.7623 0.941628 12.1481 2.57824C11.6753 3.05818 11.3241 3.64705 11.1245 4.29452C10.925 4.94199 10.883 5.62882 11.0022 6.29632C11.0171 6.39887 10.992 6.50327 10.9324 6.58745C10.8728 6.67164 10.7832 6.72902 10.6826 6.74746C10.582 6.7659 10.4782 6.74396 10.3933 6.68628C10.3083 6.6286 10.2488 6.5397 10.2274 6.43835C10.0856 5.64405 10.1356 4.82674 10.3731 4.05629C10.6106 3.28583 11.0286 2.58514 11.5913 2.01408C13.512 0.0662695 16.6385 0.0662695 18.5592 2.01408C20.4804 3.96189 20.4804 7.13098 18.5592 9.07879C17.6344 10.0156 16.3804 10.5417 15.0731 10.5414Z" fill="#444444"/>
<path d="M3.57263 19.9388C3.46827 19.9388 3.36819 19.8968 3.29441 19.8219L0.996688 17.4919C0.92616 17.4204 0.885054 17.3245 0.881693 17.2234C0.878332 17.1224 0.912967 17.0238 0.978586 16.9477L10.2836 6.13298C10.319 6.09177 10.3624 6.05839 10.4111 6.03491C10.4598 6.01144 10.5127 5.99837 10.5665 5.99653C10.6205 5.99387 10.6744 6.00288 10.7247 6.02297C10.775 6.04306 10.8205 6.07376 10.8581 6.11303L14.5178 9.82353C14.5561 9.86211 14.586 9.90828 14.6059 9.95914C14.6258 10.01 14.635 10.0645 14.6332 10.1191C14.6314 10.1738 14.6184 10.2275 14.5952 10.2769C14.5719 10.3262 14.5389 10.3702 14.4981 10.406L3.83117 19.8403C3.75951 19.9036 3.6677 19.9386 3.57263 19.9388ZM1.81283 17.1911L3.59073 18.9941L13.6631 10.0857L10.5992 6.97922L1.81283 17.1911ZM16.3795 8.07242C16.3278 8.07247 16.2767 8.06217 16.2289 8.04211C16.1812 8.02205 16.1378 7.99262 16.1013 7.95552L11.3854 3.17416C11.3489 3.13712 11.3199 3.09314 11.3002 3.04474C11.2804 2.99634 11.2702 2.94447 11.2702 2.89208C11.2702 2.8397 11.2804 2.78782 11.3002 2.73942C11.3199 2.69102 11.3489 2.64705 11.3854 2.61C11.422 2.57296 11.4654 2.54358 11.5131 2.52353C11.5608 2.50348 11.612 2.49316 11.6637 2.49316C11.7153 2.49316 11.7665 2.50348 11.8142 2.52353C11.862 2.54358 11.9053 2.57296 11.9419 2.61L16.6577 7.39136C16.713 7.44708 16.7506 7.51818 16.7659 7.59563C16.7812 7.67308 16.7734 7.75338 16.7436 7.82636C16.7138 7.89933 16.6633 7.96168 16.5984 8.00549C16.5336 8.0493 16.4574 8.07259 16.3795 8.07242Z" fill="#444444"/>
<path d="M5.76725 17.7479C5.71556 17.748 5.66438 17.7377 5.61663 17.7176C5.56889 17.6976 5.52553 17.6681 5.48903 17.631L3.17084 15.2806C3.09706 15.2058 3.0556 15.1044 3.0556 14.9986C3.0556 14.8928 3.09706 14.7913 3.17084 14.7165C3.24463 14.6417 3.34471 14.5996 3.44906 14.5996C3.55341 14.5996 3.65348 14.6417 3.72727 14.7165L6.04546 17.0669C6.10067 17.1226 6.13831 17.1937 6.15359 17.2711C6.16888 17.3486 6.16112 17.4289 6.13131 17.5019C6.1015 17.5748 6.05098 17.6372 5.98616 17.681C5.92134 17.7248 5.84515 17.7481 5.76725 17.7479ZM9.26558 11.8367C9.18768 11.8368 9.11148 11.8135 9.04666 11.7697C8.98184 11.7259 8.93132 11.6636 8.90151 11.5906C8.8717 11.5176 8.86395 11.4373 8.87924 11.3599C8.89452 11.2824 8.93216 11.2113 8.98737 11.1556L10.1742 9.95229C10.248 9.87748 10.3481 9.83545 10.4524 9.83545C10.5568 9.83545 10.6568 9.87748 10.7306 9.95229C10.8044 10.0271 10.8459 10.1286 10.8459 10.2344C10.8459 10.3402 10.8044 10.4416 10.7306 10.5164L9.5438 11.7198C9.50735 11.7569 9.464 11.7864 9.41624 11.8065C9.36849 11.8265 9.31728 11.8368 9.26558 11.8367Z" fill="#444444"/>
<path d="M2.53331 24.0002C2.20053 24.0008 1.87091 23.9347 1.56338 23.8058C1.25586 23.6769 0.976465 23.4876 0.741244 23.249C0.266579 22.7667 0 22.1132 0 21.4318C0 20.7505 0.266579 20.097 0.741244 19.6147L2.03276 18.3056C2.06929 18.2686 2.11267 18.2392 2.1604 18.2191C2.20814 18.1991 2.2593 18.1888 2.31097 18.1888C2.36264 18.1888 2.4138 18.1991 2.46154 18.2191C2.50927 18.2392 2.55265 18.2686 2.58918 18.3056C2.62572 18.3427 2.6547 18.3866 2.67447 18.435C2.69425 18.4834 2.70442 18.5353 2.70442 18.5877C2.70442 18.6401 2.69425 18.692 2.67447 18.7404C2.6547 18.7888 2.62572 18.8327 2.58918 18.8698L1.29767 20.1788C0.970551 20.5115 0.786859 20.9621 0.786859 21.4318C0.786859 21.9016 0.970551 22.3522 1.29767 22.6848C1.62583 23.0164 2.07022 23.2026 2.5335 23.2026C2.99678 23.2026 3.44118 23.0164 3.76933 22.6848L11.0422 15.3105C12.0237 14.3162 13.6206 14.3154 14.6012 15.3105C15.0766 15.7925 15.3386 16.4332 15.3386 17.1147C15.3386 17.7961 15.0766 18.4369 14.6012 18.9185L9.78143 23.8055C9.70765 23.8804 9.60757 23.9224 9.50322 23.9224C9.39887 23.9224 9.29879 23.8804 9.225 23.8055C9.15122 23.7307 9.10976 23.6293 9.10976 23.5235C9.10976 23.4177 9.15122 23.3162 9.225 23.2414L14.0448 18.3547C14.3714 18.0235 14.5516 17.5831 14.5516 17.1151C14.5516 16.6471 14.3714 16.2062 14.0448 15.875C13.72 15.5469 13.2802 15.3627 12.8217 15.3627C12.3632 15.3627 11.9234 15.5469 11.5987 15.875L4.32576 23.249C4.09048 23.4877 3.81102 23.6769 3.50343 23.8058C3.19583 23.9348 2.86615 24.0008 2.53331 24.0002ZM2.56321 6.28081C1.84859 6.28081 1.26698 5.69112 1.26698 4.96658C1.26698 4.24203 1.84859 3.65234 2.56321 3.65234C3.27783 3.65234 3.85945 4.24203 3.85945 4.96658C3.85945 5.69112 3.27823 6.28081 2.56321 6.28081ZM2.56321 4.4503C2.28264 4.4503 2.05401 4.68211 2.05401 4.96658C2.05401 5.25105 2.28264 5.48286 2.56321 5.48286C2.84379 5.48286 3.07242 5.25105 3.07242 4.96658C3.07242 4.68211 2.84418 4.4503 2.56321 4.4503ZM6.2831 6.28081C5.56848 6.28081 4.98686 5.69112 4.98686 4.96658C4.98686 4.24203 5.56848 3.65234 6.2831 3.65234C6.99772 3.65234 7.57933 4.24203 7.57933 4.96658C7.57933 5.69112 6.99772 6.28081 6.2831 6.28081ZM6.2831 4.4503C6.00252 4.4503 5.77389 4.68211 5.77389 4.96658C5.77389 5.25105 6.00252 5.48286 6.2831 5.48286C6.56367 5.48286 6.7923 5.25105 6.7923 4.96658C6.7923 4.68211 6.56367 4.4503 6.2831 4.4503Z" fill="#444444"/>
<path d="M7.18545 5.36531C7.08108 5.36531 6.98099 5.32328 6.90719 5.24845C6.8334 5.17363 6.79194 5.07215 6.79194 4.96633V0.824937L3.85908 1.08148V4.96593C3.85908 5.07175 3.81762 5.17323 3.74382 5.24805C3.67002 5.32288 3.56993 5.36491 3.46557 5.36491C3.3612 5.36491 3.26111 5.32288 3.18731 5.24805C3.11351 5.17323 3.07205 5.07175 3.07205 4.96593V0.805786C3.07205 0.546051 3.26487 0.332997 3.52026 0.310255L7.04615 0.00184453C7.18191 -0.0101248 7.31846 0.0365557 7.41959 0.130316C7.52072 0.224474 7.57896 0.358132 7.57896 0.497376V4.96593C7.57902 5.01836 7.56887 5.07029 7.54912 5.11874C7.52937 5.16719 7.50039 5.21122 7.46385 5.24831C7.4273 5.2854 7.3839 5.31483 7.33613 5.3349C7.28836 5.35498 7.23716 5.36531 7.18545 5.36531Z" fill="#444444"/>
</svg>
