<svg width="24" height="24" viewBox="0 0 24 24" fill="none" xmlns="http://www.w3.org/2000/svg">
<path fill-rule="evenodd" clip-rule="evenodd" d="M3.22021 10C3.22021 9.58579 3.556 9.25 3.97021 9.25H19.9702C20.3844 9.25 20.7202 9.58579 20.7202 10V18C20.7202 19.5415 20.473 20.8079 19.6255 21.6553C18.7781 22.5028 17.5118 22.75 15.9702 22.75H7.97021C6.42867 22.75 5.16231 22.5028 4.31488 21.6553C3.46746 20.8079 3.22021 19.5415 3.22021 18V10ZM4.72021 10.75V18C4.72021 19.4585 4.97297 20.1921 5.37554 20.5947C5.77812 20.9972 6.51176 21.25 7.97021 21.25H15.9702C17.4287 21.25 18.1623 20.9972 18.5649 20.5947C18.9675 20.1921 19.2202 19.4585 19.2202 18V10.75H4.72021Z" fill="#B6884B"/>
<path fill-rule="evenodd" clip-rule="evenodd" d="M3.49722 6.07381C3.35094 6.24556 3.25 6.53929 3.25 7V8C3.25 8.46071 3.35094 8.75444 3.49722 8.92619C3.6239 9.07493 3.88538 9.25 4.5 9.25H19.5C20.0758 9.25 20.3461 9.07991 20.4861 8.91945C20.6423 8.74039 20.75 8.44239 20.75 8V7C20.75 6.55761 20.6423 6.25961 20.4861 6.08055C20.3461 5.92009 20.0758 5.75 19.5 5.75H4.5C3.88538 5.75 3.6239 5.92507 3.49722 6.07381ZM2.35528 5.10119C2.8461 4.52493 3.58462 4.25 4.5 4.25H19.5C20.3942 4.25 21.1239 4.52991 21.6164 5.09445C22.0927 5.64039 22.25 6.34239 22.25 7V8C22.25 8.65761 22.0927 9.35961 21.6164 9.90555C21.1239 10.4701 20.3942 10.75 19.5 10.75H4.5C3.58462 10.75 2.8461 10.4751 2.35528 9.89881C1.88406 9.34556 1.75 8.63929 1.75 8V7C1.75 6.36071 1.88406 5.65444 2.35528 5.10119Z" fill="#B6884B"/>
<path fill-rule="evenodd" clip-rule="evenodd" d="M8.38946 2.81027C8.31235 2.73316 8.17722 2.73316 8.10012 2.81027L6.68012 4.23027C6.6738 4.23659 6.668 4.24316 6.66273 4.24994H9.82913L8.38946 2.81027ZM7.03946 1.74961C7.70235 1.08672 8.78722 1.08672 9.45012 1.74961L12.1701 4.46961C12.3846 4.68411 12.4488 5.0067 12.3327 5.28695C12.2166 5.56721 11.9431 5.74994 11.6398 5.74994H6.11979C5.90988 5.74994 5.70957 5.66197 5.56754 5.50741C4.95535 4.8412 4.97554 3.81353 5.61946 3.16961L7.03946 1.74961Z" fill="#B6884B"/>
<path fill-rule="evenodd" clip-rule="evenodd" d="M15.8898 2.81027C15.8127 2.73316 15.6776 2.73316 15.6004 2.81027L14.1608 4.24994H17.3272C17.3219 4.24316 17.3161 4.23659 17.3098 4.23027L15.8898 2.81027ZM14.5398 1.74961C15.2027 1.08672 16.2876 1.08672 16.9504 1.74961L18.3704 3.16961C19.0144 3.81353 19.0346 4.8412 18.4224 5.50741C18.2803 5.66197 18.08 5.74994 17.8701 5.74994H12.3501C12.0468 5.74994 11.7733 5.56721 11.6572 5.28695C11.5411 5.0067 11.6053 4.68411 11.8198 4.46961L14.5398 1.74961Z" fill="#B6884B"/>
</svg>
