<svg width="24" height="29" viewBox="0 0 24 29" fill="none" xmlns="http://www.w3.org/2000/svg">
<path d="M21.93 5.76001L18.56 19.29C18.32 20.3 17.42 21 16.38 21H3.23998C1.72998 21 0.649993 19.5199 1.09999 18.0699L5.30998 4.55005C5.59998 3.61005 6.47 2.95996 7.45 2.95996H19.75C20.7 2.95996 21.49 3.53997 21.82 4.33997C22.01 4.76997 22.05 5.26001 21.93 5.76001Z" stroke="#444444" stroke-width="1.5" stroke-miterlimit="10"/>
<path d="M16 21H20.78C22.07 21 23.08 19.91 22.99 18.62L22 5" stroke="#444444" stroke-width="1.5" stroke-miterlimit="10" stroke-linecap="round" stroke-linejoin="round"/>
<path d="M9.67969 5.38L10.7197 1.06006" stroke="#444444" stroke-width="1.5" stroke-miterlimit="10" stroke-linecap="round" stroke-linejoin="round"/>
<path d="M16.3799 5.38977L17.3199 1.0498" stroke="#444444" stroke-width="1.5" stroke-miterlimit="10" stroke-linecap="round" stroke-linejoin="round"/>
<path d="M7.70001 11H15.7" stroke="#444444" stroke-width="1.5" stroke-miterlimit="10" stroke-linecap="round" stroke-linejoin="round"/>
<path d="M6.70001 15H14.7" stroke="#444444" stroke-width="1.5" stroke-miterlimit="10" stroke-linecap="round" stroke-linejoin="round"/>
</svg>
