<svg width="24" height="24" viewBox="0 0 24 24" fill="none" xmlns="http://www.w3.org/2000/svg">
<g clip-path="url(#clip0_232_1574)">
<path d="M20.104 3.34937C18.2578 1.8016 15.8356 0.916819 13.2475 0.836059V0.388768C13.2475 0.174013 13.0735 0 12.8588 0C12.644 0 12.47 0.174013 12.47 0.388768V0.836059C9.88183 0.916767 7.45975 1.8016 5.61347 3.34937C3.65516 4.991 2.57672 7.17956 2.57672 9.51186C2.57669 9.58725 2.59859 9.66102 2.63974 9.72418C2.68089 9.78735 2.73952 9.83719 2.80849 9.86762C2.87746 9.89806 2.95379 9.90779 3.02819 9.89562C3.10259 9.88345 3.17184 9.84991 3.22752 9.79908C3.8398 9.24055 5.0031 8.89351 6.26323 8.89351C7.52336 8.89351 8.68665 9.2405 9.29894 9.79908C9.37057 9.86439 9.46401 9.90059 9.56094 9.90059C9.65787 9.90059 9.75131 9.86439 9.82294 9.79908C10.3717 9.2985 11.363 8.9681 12.4699 8.90481V19.0756H11.1519L9.93004 17.365H10.7852C11 17.365 11.174 17.191 11.174 16.9762C11.174 16.7614 11 16.5874 10.7852 16.5874H5.07355L3.06828 13.7801C2.97562 13.6496 2.858 13.5388 2.72222 13.4541C2.58644 13.3693 2.4352 13.3124 2.27727 13.2865C2.11948 13.2597 1.95792 13.2645 1.80199 13.3006C1.64606 13.3367 1.49887 13.4034 1.36895 13.4969C0.822393 13.8873 0.695396 14.6496 1.08582 15.1962L5.23273 21.0019C5.28267 21.0715 5.33984 21.1356 5.40327 21.1931L5.01093 23.5473C5.00164 23.603 5.00461 23.6601 5.01964 23.7146C5.03466 23.769 5.06137 23.8196 5.09792 23.8627C5.13446 23.9058 5.17996 23.9404 5.23125 23.9641C5.28253 23.9878 5.33837 24.0001 5.39488 24.0001C5.58154 24.0001 5.74617 23.8653 5.77794 23.6751L6.13903 21.5086C6.16718 21.5106 6.19548 21.5119 6.22389 21.5119H12.47V23.6112C12.47 23.826 12.644 24 12.8588 24C13.0735 24 13.2475 23.826 13.2475 23.6112V21.5118H20.8231L21.1837 23.6751C21.2007 23.7768 21.2573 23.8676 21.3412 23.9275C21.4252 23.9874 21.5294 24.0116 21.6311 23.9947C21.7328 23.9777 21.8236 23.921 21.8836 23.8371C21.9435 23.7532 21.9676 23.6489 21.9507 23.5472L21.6113 21.5107C22.2626 21.4874 22.7855 20.9506 22.7855 20.2936C22.7855 19.622 22.239 19.0755 21.5673 19.0755H13.2475V8.90481C14.3544 8.96805 15.3457 9.2985 15.8945 9.79908C15.9661 9.86439 16.0595 9.90059 16.1565 9.90059C16.2534 9.90059 16.3468 9.86439 16.4185 9.79908C17.0308 9.24055 18.1941 8.89351 19.4542 8.89351C20.7143 8.89351 21.8776 9.2405 22.4899 9.79908C22.5456 9.84984 22.6148 9.88332 22.6892 9.89545C22.7636 9.90758 22.8399 9.89784 22.9088 9.86741C22.9778 9.83699 23.0364 9.78718 23.0775 9.72406C23.1187 9.66094 23.1406 9.58722 23.1407 9.51186C23.1407 7.17956 22.0623 4.991 20.104 3.34937ZM8.97465 17.365L10.1965 19.0756H6.85073L5.62891 17.365H8.97465ZM22.0079 20.2937C22.0079 20.5366 21.8102 20.7343 21.5673 20.7343H6.22389C6.15377 20.7342 6.08468 20.7174 6.02233 20.6854C5.95999 20.6533 5.90617 20.6068 5.86534 20.5498L1.71848 14.7442C1.65011 14.6484 1.62305 14.5317 1.64238 14.4156C1.66172 14.2996 1.72511 14.198 1.82106 14.1294C1.89529 14.076 1.98444 14.0473 2.07589 14.0473C2.1003 14.0473 2.12482 14.0494 2.14939 14.0534C2.20652 14.0628 2.26123 14.0834 2.31035 14.114C2.35947 14.1447 2.40203 14.1847 2.43557 14.2319L6.3344 19.6903C6.37037 19.7406 6.41783 19.7817 6.47286 19.81C6.52788 19.8383 6.58887 19.8531 6.65075 19.8531H10.9515L10.9524 19.8531L10.9531 19.8531H21.5673C21.8102 19.8531 22.0079 20.0507 22.0079 20.2937ZM14.8297 3.77654C15.3689 5.12427 15.6919 6.87471 15.7558 8.76423C14.9907 8.35172 13.9641 8.11597 12.8587 8.11597C11.7533 8.11597 10.7268 8.35172 9.96166 8.76423C10.0255 6.87471 10.3485 5.12433 10.8878 3.77654C11.4395 2.39771 12.1579 1.60691 12.8588 1.60691C13.5596 1.60691 14.278 2.39771 14.8297 3.77654ZM3.39858 8.74567C3.80901 5.21105 7.03024 2.35044 11.175 1.73168C10.7988 2.16881 10.4578 2.75828 10.1659 3.48777C9.59046 4.92605 9.24736 6.78343 9.18339 8.77672C8.41591 8.35649 7.37982 8.11603 6.26328 8.11603C5.17385 8.11597 4.16004 8.34426 3.39858 8.74567ZM19.4542 8.11597C18.3377 8.11597 17.3016 8.35644 16.5341 8.77667C16.4701 6.78338 16.127 4.926 15.5516 3.48772C15.2597 2.75823 14.9187 2.16881 14.5425 1.73162C18.6873 2.35044 21.9085 5.21105 22.3189 8.74562C21.5574 8.34426 20.5437 8.11597 19.4542 8.11597Z" fill="#B6884B"/>
</g>
<defs>
<clipPath id="clip0_232_1574">
<rect width="24" height="24" fill="white"/>
</clipPath>
</defs>
</svg>
