<svg width="23" height="24" viewBox="0 0 23 24" fill="none" xmlns="http://www.w3.org/2000/svg">
<path d="M23.1951 9.87611C23.1953 9.8643 23.1976 9.85291 23.1976 9.84105C23.1976 7.25355 17.2217 5.85742 11.5988 5.85742C5.97591 5.85742 0 7.2535 0 9.841C0 9.84545 0.000937521 9.84972 0.000937521 9.85417C-0.00328149 12.0821 0.818407 14.2325 2.30723 15.8898C2.69017 16.3058 3.11299 16.6832 3.56962 17.0165L1.61212 20.7687C1.53972 20.9084 1.49556 21.0609 1.48215 21.2176C1.46874 21.3743 1.48636 21.5322 1.53399 21.6821C1.58162 21.832 1.65833 21.971 1.75974 22.0912C1.86115 22.2115 1.98526 22.3105 2.12498 22.3828C2.29484 22.4716 2.4837 22.518 2.67539 22.5179C2.89491 22.5182 3.11029 22.4582 3.29805 22.3445C3.48582 22.2307 3.63877 22.0677 3.74025 21.873L5.66953 18.1798C7.18032 18.7669 8.77809 19.0991 10.3977 19.1628V22.8C10.3977 23.4627 10.9349 24 11.5977 24C12.2604 24 12.7977 23.4627 12.7977 22.8V19.1627C14.3485 19.0991 15.8797 18.7925 17.3355 18.2543C17.3964 18.2312 17.4556 18.2013 17.5162 18.177L19.456 21.891C19.5574 22.085 19.7099 22.2476 19.897 22.3613C20.0841 22.4749 20.2987 22.5353 20.5176 22.5359C20.7112 22.5341 20.9016 22.4866 21.0734 22.3973C21.6566 22.0873 21.8824 21.3661 21.58 20.7789L19.6163 17.0213C20.7311 16.1941 21.6358 15.1165 22.2575 13.8753C22.8791 12.6342 23.2003 11.2642 23.1951 9.87611ZM11.5988 6.65739C17.9597 6.65739 22.3933 8.3335 22.3974 9.83889C22.3974 9.84616 22.3939 9.85244 22.3943 9.85975L22.3947 9.87259C22.3335 11.3702 17.9183 13.0246 11.5987 13.0246C5.23486 13.0246 0.799922 11.3469 0.799922 9.841C0.799922 8.33514 5.23495 6.65739 11.5988 6.65739ZM3.03084 21.5031C2.98253 21.5964 2.89926 21.6669 2.79921 21.699C2.69915 21.7311 2.59045 21.7223 2.49684 21.6746C2.44948 21.6509 2.40735 21.6179 2.37293 21.5777C2.33851 21.5375 2.31249 21.4907 2.29642 21.4403C2.28035 21.3898 2.27454 21.3366 2.27934 21.2839C2.28415 21.2312 2.29946 21.1799 2.32439 21.1332L4.23886 17.4636C4.46699 17.6019 4.70066 17.7308 4.93931 17.8501L3.03084 21.5031ZM11.9977 22.8C11.9977 22.9061 11.9555 23.0078 11.8805 23.0828C11.8055 23.1579 11.7038 23.2 11.5977 23.2C11.4916 23.2 11.3899 23.1579 11.3148 23.0828C11.2398 23.0078 11.1977 22.9061 11.1977 22.8V17.6C11.1977 17.4939 11.2398 17.3922 11.3148 17.3172C11.3899 17.2421 11.4916 17.2 11.5977 17.2C11.7038 17.2 11.8055 17.2421 11.8805 17.3172C11.9555 17.3922 11.9977 17.4939 11.9977 17.6V22.8ZM20.8709 21.1488C20.9201 21.2418 20.9306 21.3504 20.9 21.4511C20.8694 21.5517 20.8002 21.6361 20.7076 21.6859C20.6613 21.7124 20.6101 21.729 20.5571 21.7349C20.5042 21.7408 20.4505 21.7357 20.3996 21.7201C20.3487 21.7044 20.3015 21.6784 20.261 21.6438C20.2204 21.6092 20.1874 21.5666 20.164 21.5187L18.2473 17.8489C18.4455 17.7501 18.6433 17.6496 18.8351 17.5379C18.851 17.5285 18.8661 17.5181 18.8805 17.5066C18.903 17.4932 18.9237 17.479 18.946 17.4655L20.8709 21.1488ZM18.4314 16.8426C18.4166 16.8514 18.4023 16.8612 18.3887 16.8719C17.9596 17.119 17.5115 17.3315 17.0487 17.5074C15.6845 18.0108 14.2504 18.2991 12.7977 18.3619V17.6C12.7977 16.9373 12.2604 16.4 11.5977 16.4C10.935 16.4 10.3977 16.9372 10.3977 17.6V18.355C7.08717 18.1612 4.56206 17.1598 2.90508 15.3582C1.92867 14.2758 1.26309 12.9496 0.978797 11.5198C2.89941 13.0265 7.34897 13.8246 11.5988 13.8246C15.8483 13.8246 20.2976 13.0266 22.2184 11.5202C22.0025 12.6258 21.5529 13.6725 20.8998 14.5904C20.2467 15.5083 19.4052 16.2761 18.4314 16.8426Z" fill="#B6884B"/>
<path d="M2.6932 10.7885C2.76132 10.8066 2.83302 10.8063 2.90103 10.7878C2.96904 10.7693 3.03095 10.7331 3.08048 10.683L5.08049 8.68294C5.11765 8.64581 5.14712 8.60173 5.16723 8.5532C5.18734 8.50468 5.19769 8.45267 5.19769 8.40014C5.19769 8.34762 5.18734 8.29561 5.16723 8.24708C5.14712 8.19856 5.11765 8.15448 5.08049 8.11735C5.04337 8.08019 4.99928 8.05072 4.95076 8.03061C4.90223 8.0105 4.85022 8.00015 4.7977 8.00015C4.74517 8.00015 4.69316 8.0105 4.64464 8.03061C4.59611 8.05072 4.55203 8.08019 4.5149 8.11735L2.51488 10.1174C2.46474 10.1669 2.42858 10.2288 2.41005 10.2968C2.39153 10.3648 2.39131 10.4365 2.40941 10.5046C2.42751 10.5728 2.46329 10.6349 2.51312 10.6847C2.56296 10.7346 2.62508 10.7704 2.6932 10.7885ZM4.00935 11.3046C4.02747 11.3727 4.06326 11.4349 4.1131 11.4847C4.16295 11.5345 4.22507 11.5703 4.29319 11.5884C4.36132 11.6065 4.43301 11.6063 4.50102 11.5878C4.56902 11.5692 4.63093 11.5331 4.68046 11.4829L7.88048 8.28291C7.91763 8.24578 7.94711 8.2017 7.96721 8.15317C7.98732 8.10465 7.99767 8.05264 7.99767 8.00011C7.99767 7.94759 7.98732 7.89558 7.96721 7.84705C7.94711 7.79853 7.91763 7.75444 7.88048 7.71732C7.84335 7.68016 7.79926 7.65069 7.75074 7.63058C7.70222 7.61047 7.65021 7.60012 7.59768 7.60012C7.54516 7.60012 7.49314 7.61047 7.44462 7.63058C7.3961 7.65069 7.35201 7.68016 7.31488 7.71732L4.11487 10.9173C4.06472 10.9669 4.02854 11.0288 4.01001 11.0968C3.99148 11.1648 3.99126 11.2365 4.00935 11.3046ZM6.00932 11.7046C6.02743 11.7727 6.06322 11.8348 6.11307 11.8847C6.16291 11.9345 6.22504 11.9703 6.29316 11.9884C6.36128 12.0065 6.43298 12.0063 6.50099 11.9877C6.56899 11.9692 6.6309 11.9331 6.68043 11.8829L10.6804 7.88293C10.7176 7.8458 10.747 7.80171 10.7672 7.75319C10.7873 7.70466 10.7976 7.65265 10.7976 7.60013C10.7976 7.5476 10.7873 7.49559 10.7672 7.44707C10.747 7.39855 10.7176 7.35446 10.6804 7.31733C10.6433 7.28018 10.5992 7.2507 10.5507 7.2306C10.5022 7.21049 10.4501 7.20014 10.3976 7.20014C10.3451 7.20014 10.2931 7.21049 10.2446 7.2306C10.196 7.2507 10.152 7.28018 10.1148 7.31733L6.11484 11.3173C6.06468 11.3668 6.02851 11.4288 6.00998 11.4968C5.99145 11.5648 5.99122 11.6365 6.00932 11.7046ZM8.00934 12.1046C8.02745 12.1727 8.06324 12.2349 8.11308 12.2847C8.16293 12.3345 8.22506 12.3703 8.29318 12.3884C8.3613 12.4065 8.43299 12.4063 8.501 12.3878C8.56901 12.3692 8.63091 12.3331 8.68045 12.2829L13.0805 7.88293C13.1176 7.8458 13.1471 7.80171 13.1672 7.75319C13.1873 7.70466 13.1977 7.65265 13.1977 7.60013C13.1977 7.5476 13.1873 7.49559 13.1672 7.44707C13.1471 7.39855 13.1176 7.35446 13.0805 7.31733C13.0433 7.28018 12.9992 7.2507 12.9507 7.2306C12.9022 7.21049 12.8502 7.20014 12.7977 7.20014C12.7451 7.20014 12.6931 7.21049 12.6446 7.2306C12.5961 7.2507 12.552 7.28018 12.5149 7.31733L8.11485 11.7173C8.0647 11.7669 8.02852 11.8288 8.00999 11.8968C7.99146 11.9648 7.99124 12.0365 8.00934 12.1046ZM10.4093 12.1046C10.4274 12.1727 10.4632 12.2349 10.5131 12.2847C10.5629 12.3345 10.6251 12.3703 10.6932 12.3884C10.7613 12.4065 10.833 12.4063 10.901 12.3878C10.969 12.3692 11.0309 12.3331 11.0804 12.2829L15.0804 8.28296C15.1176 8.24583 15.1471 8.20174 15.1672 8.15322C15.1873 8.1047 15.1976 8.05268 15.1976 8.00016C15.1976 7.94763 15.1873 7.89562 15.1672 7.8471C15.1471 7.79858 15.1176 7.75449 15.0804 7.71736C15.0433 7.68021 14.9992 7.65074 14.9507 7.63063C14.9022 7.61052 14.8502 7.60017 14.7976 7.60017C14.7451 7.60017 14.6931 7.61052 14.6446 7.63063C14.5961 7.65074 14.552 7.68021 14.5148 7.71736L10.5149 11.7173C10.4647 11.7669 10.4285 11.8288 10.41 11.8968C10.3915 11.9648 10.3912 12.0365 10.4093 12.1046ZM12.8093 12.1046C12.8274 12.1727 12.8632 12.2349 12.9131 12.2847C12.9629 12.3345 13.0251 12.3703 13.0932 12.3884C13.1613 12.4065 13.233 12.4063 13.301 12.3878C13.369 12.3692 13.4309 12.3331 13.4804 12.2829L17.0804 8.68294C17.1176 8.64581 17.1471 8.60173 17.1672 8.5532C17.1873 8.50468 17.1976 8.45267 17.1976 8.40014C17.1976 8.34762 17.1873 8.29561 17.1672 8.24708C17.1471 8.19856 17.1176 8.15448 17.0804 8.11735C17.0433 8.08019 16.9992 8.05072 16.9507 8.03061C16.9022 8.0105 16.8502 8.00015 16.7976 8.00015C16.7451 8.00015 16.6931 8.0105 16.6446 8.03061C16.5961 8.05072 16.552 8.08019 16.5149 8.11735L12.9149 11.7173C12.8647 11.7669 12.8285 11.8288 12.81 11.8968C12.7915 11.9648 12.7912 12.0365 12.8093 12.1046ZM15.6093 11.7046C15.6274 11.7727 15.6632 11.8348 15.7131 11.8847C15.7629 11.9345 15.825 11.9703 15.8932 11.9884C15.9613 12.0065 16.033 12.0063 16.101 11.9877C16.169 11.9692 16.2309 11.9331 16.2804 11.8829L19.4804 8.68289C19.5176 8.64577 19.5471 8.60168 19.5672 8.55316C19.5873 8.50463 19.5976 8.45262 19.5976 8.4001C19.5976 8.34757 19.5873 8.29556 19.5672 8.24704C19.5471 8.19851 19.5176 8.15443 19.4804 8.1173C19.4433 8.08015 19.3992 8.05067 19.3507 8.03056C19.3022 8.01046 19.2502 8.0001 19.1976 8.0001C19.1451 8.0001 19.0931 8.01046 19.0446 8.03056C18.9961 8.05067 18.952 8.08015 18.9149 8.1173L15.7148 11.3173C15.6647 11.3668 15.6285 11.4288 15.61 11.4968C15.5915 11.5648 15.5912 11.6365 15.6093 11.7046ZM18.4085 11.305C18.4265 11.3733 18.4623 11.4356 18.5123 11.4855C18.5622 11.5354 18.6245 11.5713 18.6927 11.5893C18.761 11.6074 18.8328 11.6071 18.9009 11.5884C18.969 11.5697 19.031 11.5333 19.0805 11.4829L20.6804 9.88294C20.7178 9.84585 20.7474 9.80175 20.7677 9.75317C20.788 9.7046 20.7985 9.6525 20.7985 9.59986C20.7986 9.54723 20.7883 9.49509 20.7682 9.44645C20.7481 9.3978 20.7186 9.3536 20.6814 9.31638C20.6442 9.27916 20.6 9.24966 20.5513 9.22956C20.5027 9.20945 20.4506 9.19915 20.3979 9.19924C20.3453 9.19933 20.2932 9.20981 20.2446 9.23008C20.196 9.25035 20.1519 9.28 20.1149 9.31735L18.5149 10.9173C18.4645 10.9668 18.4281 11.0287 18.4094 11.0968C18.3907 11.1649 18.3904 11.2368 18.4085 11.305ZM8.76932 3.33567C8.88854 3.4781 8.95388 3.65791 8.95392 3.84365C8.95395 4.02939 8.88868 4.20922 8.76951 4.35169L8.60896 4.5435C8.5409 4.62483 8.50793 4.72986 8.5173 4.83549C8.52668 4.94113 8.57763 5.03871 8.65895 5.10678C8.74028 5.17484 8.84531 5.20781 8.95094 5.19844C9.05658 5.18906 9.15416 5.13811 9.22223 5.05678L9.38296 4.86497C9.87524 4.2773 9.8782 3.42207 9.38999 2.83097L9.38217 2.82122C9.26284 2.67883 9.19745 2.49899 9.19745 2.31321C9.19745 2.12744 9.26284 1.94759 9.38217 1.80521L10.3425 0.656769C10.4091 0.575227 10.4409 0.470716 10.431 0.365903C10.421 0.26109 10.3701 0.164426 10.2894 0.0968755C10.2086 0.0293254 10.1045 -0.0036641 9.99956 0.00506179C9.89464 0.0137877 9.79739 0.0635254 9.7289 0.143488L8.76857 1.29193C8.27606 1.87969 8.2732 2.73525 8.76173 3.3263L8.76932 3.33567ZM11.1693 3.33567C11.2885 3.4781 11.3539 3.65791 11.3539 3.84365C11.354 4.02939 11.2887 4.20922 11.1695 4.35169L11.009 4.5435C10.9753 4.58377 10.9498 4.63028 10.9341 4.68038C10.9184 4.73048 10.9127 4.78319 10.9173 4.83549C10.9267 4.94113 10.9776 5.03871 11.059 5.10678C11.1403 5.17484 11.2453 5.20781 11.3509 5.19844C11.4566 5.18906 11.5542 5.13811 11.6222 5.05678L11.783 4.86497C12.2752 4.2773 12.2782 3.42207 11.79 2.83097L11.7822 2.82122C11.6628 2.67883 11.5975 2.49899 11.5975 2.31321C11.5975 2.12744 11.6628 1.94759 11.7822 1.80521L12.7425 0.656769C12.8097 0.575289 12.842 0.470537 12.8323 0.365366C12.8225 0.260195 12.7716 0.163141 12.6906 0.0953786C12.6096 0.0276161 12.505 -0.0053554 12.3998 0.00365736C12.2946 0.0126701 12.1972 0.0629357 12.1289 0.143488L11.1685 1.29193C10.676 1.87969 10.6732 2.73525 11.1617 3.3263L11.1693 3.33567ZM13.5693 3.33567C13.6885 3.4781 13.7539 3.65791 13.7539 3.84365C13.754 4.02939 13.6887 4.20922 13.5695 4.35169L13.409 4.5435C13.3753 4.58377 13.3498 4.63029 13.3341 4.68039C13.3184 4.73049 13.3127 4.7832 13.3173 4.83551C13.3267 4.94115 13.3776 5.03873 13.459 5.1068C13.5403 5.17487 13.6453 5.20783 13.751 5.19845C13.8566 5.18907 13.9542 5.13811 14.0223 5.05678L14.183 4.86497C14.6753 4.2773 14.6782 3.42207 14.19 2.83097L14.1822 2.82122C14.0629 2.67883 13.9975 2.49899 13.9975 2.31321C13.9975 2.12744 14.0629 1.94759 14.1822 1.80521L15.1426 0.656769C15.2098 0.575289 15.242 0.470537 15.2323 0.365366C15.2226 0.260195 15.1716 0.163141 15.0906 0.0953786C15.0096 0.0276161 14.9051 -0.0053554 14.7999 0.00365736C14.6946 0.0126701 14.5972 0.0629357 14.5289 0.143488L13.5686 1.29193C13.0761 1.87969 13.0732 2.73525 13.5617 3.3263L13.5693 3.33567Z" fill="#B6884B"/>
</svg>
