<svg width="21" height="24" viewBox="0 0 19 22" fill="none" xmlns="http://www.w3.org/2000/svg">
<path d="M17.5999 14.2304C18.5092 13.9173 17.3843 12.9219 17.0246 12.7562C18.648 11.4719 18.7054 9.12821 18.7066 9.00926C18.7059 8.91578 18.6749 8.82507 18.6182 8.75074C18.5615 8.67641 18.4823 8.62249 18.3923 8.59707C18.3024 8.57165 18.2066 8.57611 18.1194 8.60977C18.0322 8.64344 17.9583 8.7045 17.9088 8.78377C17.8113 8.92159 17.6855 9.03695 17.5397 9.12207C17.394 9.2072 17.2317 9.26012 17.0638 9.27728C18.9247 6.74251 18.6587 5.08617 18.6455 5.01046C18.6294 4.9189 18.584 4.83505 18.5161 4.77152C18.4483 4.70799 18.3616 4.66821 18.2692 4.65818C18.1768 4.64814 18.0836 4.66838 18.0036 4.71586C17.9237 4.76334 17.8614 4.83549 17.826 4.92145C17.7284 5.10505 17.5794 5.25624 17.3972 5.35655C17.2151 5.45686 17.0077 5.50194 16.8003 5.48628C17.5803 2.54483 15.1855 -0.219196 14.7263 0.853035C14.6142 1.10131 14.0072 1.24874 13.595 1.26362C13.1216 1.21883 12.6444 1.28836 12.2034 1.46638C11.7625 1.6444 11.3707 1.9257 11.0611 2.28662C11.237 1.77952 11.5169 1.31474 11.8828 0.922075C11.9416 0.859765 11.9805 0.781398 11.9947 0.696922C12.0088 0.612446 11.9975 0.525672 11.9623 0.447615C11.927 0.369558 11.8693 0.30374 11.7966 0.258515C11.7239 0.21329 11.6393 0.190699 11.5537 0.193609C10.6041 0.223147 9.68102 0.513648 8.88565 1.03325C8.09028 1.55284 7.45338 2.28146 7.04482 3.13918C6.80945 2.53103 6.51166 1.94893 6.15622 1.40221C6.1086 1.33037 6.04035 1.27462 5.96045 1.24229C5.88055 1.20996 5.79274 1.20257 5.70856 1.22108C5.62277 1.24367 5.54547 1.29088 5.48619 1.35688C5.4269 1.42288 5.38823 1.50479 5.37494 1.59251C5.26146 2.27603 4.89992 2.8937 4.3595 3.32732C4.27187 3.40001 4.2167 3.50454 4.20614 3.61791C4.19558 3.73128 4.23048 3.8442 4.30318 3.93184C4.37588 4.01947 4.48041 4.07463 4.59378 4.0852C4.70715 4.09576 4.82007 4.06085 4.9077 3.98815C5.33152 3.63785 5.67521 3.20066 5.91557 2.70612C6.26579 3.31067 6.4609 3.99252 6.4835 4.69082C6.47328 4.78677 6.49557 4.88338 6.54678 4.96516C6.598 5.04694 6.67519 5.10917 6.76598 5.14186C6.85677 5.17456 6.9559 5.17583 7.0475 5.14548C7.1391 5.11513 7.21786 5.05491 7.27116 4.97447C7.29807 4.92668 7.31808 4.87533 7.33061 4.82193C7.39989 4.49326 8.02851 1.8758 10.6074 1.20116C10.217 1.86186 9.89259 2.79362 10.4098 3.64051C10.4506 3.70517 10.5077 3.75787 10.5755 3.79324C10.6432 3.8286 10.7192 3.84537 10.7955 3.84183C10.8719 3.83828 10.9459 3.81456 11.0101 3.77307C11.0743 3.73158 11.1263 3.67382 11.1609 3.60566C11.1696 3.58883 12.0019 1.93241 13.524 2.11962C14.0954 2.13013 14.657 1.97051 15.1375 1.66106C15.6151 2.2098 15.9321 2.87965 16.0537 3.59692C16.1753 4.31419 16.0966 5.05109 15.8265 5.72657C15.8058 5.78453 15.7976 5.84625 15.8026 5.9076C15.8077 5.96896 15.8258 6.02853 15.8557 6.08233C15.8856 6.13613 15.9267 6.18292 15.9761 6.21956C16.0256 6.2562 16.0823 6.28185 16.1425 6.2948C16.6582 6.39208 17.1904 6.35093 17.685 6.17554C17.3236 7.39044 16.6926 8.50804 15.8389 9.44495C15.7905 9.5034 15.7584 9.57357 15.7458 9.64837C15.7332 9.72317 15.7405 9.79998 15.7671 9.87105C15.7936 9.94212 15.8383 10.005 15.8969 10.0532C15.9554 10.1015 16.0256 10.1335 16.1004 10.146C16.6404 10.22 17.1901 10.1661 17.7054 9.98877C17.4929 10.8826 16.9653 12.119 15.6585 12.541C15.5473 12.5668 15.4504 12.6346 15.388 12.7302C15.3256 12.8258 15.3027 12.9419 15.324 13.054C15.6129 13.7425 15.9332 13.0711 16.6838 13.5527C16.0176 13.7488 13.6073 14.3781 13.7165 15.2583C13.7328 15.3272 13.766 15.3909 13.8132 15.4437C13.8604 15.4965 13.92 15.5367 13.9866 15.5607C14.4403 15.7261 14.912 15.8374 15.3918 15.8922C14.7996 16.6214 13.5438 17.5576 11.3114 16.6929C11.2398 16.6661 11.1625 16.6586 11.0871 16.6714C11.0118 16.6843 10.9412 16.7168 10.8826 16.7658C10.824 16.8148 10.7794 16.8785 10.7534 16.9503C10.7274 17.0222 10.721 17.0997 10.7348 17.1748C10.819 17.5357 10.9778 17.875 11.2008 18.1709C10.1386 17.9438 9.14506 17.469 8.30115 16.7852C7.93504 16.5114 7.47516 16.3942 7.02266 16.4594C6.57016 16.5246 6.16209 16.7669 5.8882 17.1329C5.47518 16.7674 5.01661 16.4568 4.5239 16.209C6.20703 14.4374 4.05393 12.6211 1.66283 12.0329C2.07876 11.5353 2.6526 11.4844 3.38137 11.7247C3.43356 11.7533 3.49111 11.7708 3.55039 11.7761C3.60968 11.7814 3.66942 11.7744 3.72585 11.7554C3.78228 11.7365 3.83419 11.7061 3.8783 11.6662C3.92241 11.6262 3.95778 11.5775 3.98217 11.5232C4.00656 11.469 4.01945 11.4102 4.02003 11.3507C4.02061 11.2912 4.00886 11.2322 3.98553 11.1774C3.9622 11.1227 3.92779 11.0733 3.88446 11.0325C3.84113 10.9917 3.78983 10.9603 3.73377 10.9403C3.37922 10.7912 1.91562 10.0661 1.96207 7.90508C2.27627 8.33586 2.69681 8.6778 3.18262 8.89754C3.27255 8.93304 3.37181 8.93727 3.46443 8.90954C3.55705 8.88182 3.63765 8.82375 3.69328 8.74467C3.74891 8.6656 3.77633 8.57011 3.77113 8.47357C3.76593 8.37703 3.72841 8.28504 3.66461 8.2124C3.28601 7.78029 3.07158 7.22871 3.05888 6.65435C3.04619 6.07998 3.23604 5.51947 3.59518 5.07105C3.66388 4.98022 3.69368 4.86582 3.67803 4.75301C3.67028 4.69716 3.65161 4.64337 3.62307 4.59474C3.59454 4.5461 3.5567 4.50355 3.51173 4.46954C3.46675 4.43552 3.41552 4.4107 3.36095 4.39648C3.30638 4.38226 3.24954 4.37894 3.19368 4.38669C3.08088 4.40234 2.97891 4.46216 2.91021 4.55299C2.43594 5.14745 2.18142 5.88741 2.18965 6.64784C2.13581 6.53693 2.1076 6.46637 2.10672 6.46377C2.07214 6.38005 2.01211 6.30932 1.93512 6.2616C1.85813 6.21388 1.76809 6.19159 1.67773 6.19787C1.58736 6.20415 1.50127 6.23869 1.43162 6.2966C1.36197 6.35451 1.3123 6.43286 1.28964 6.52056C0.777184 8.67322 1.40677 10.0069 2.11171 10.7874C1.1547 10.9768 0.365791 12.1636 0.648944 12.565C0.681214 12.616 0.723763 12.6597 0.773871 12.6932C0.82398 12.7268 0.880542 12.7496 0.939944 12.76C2.79882 13.0492 5.00509 14.3996 4.00645 15.5113C3.63048 15.8907 1.53922 17.9957 1.12433 18.4145C0.989963 18.5501 0.90541 18.7271 0.884409 18.9168C0.86341 19.1066 0.907198 19.2978 1.00866 19.4595C1.31476 20.0329 1.76627 20.5157 2.3179 20.8595C2.86952 21.2033 3.50185 21.396 4.15146 21.4182C4.31458 21.4269 4.47659 21.3869 4.61686 21.3031C4.75714 21.2194 4.86931 21.0959 4.9391 20.9482L6.49281 17.7733C6.55013 17.6603 6.63156 17.5612 6.73136 17.483C6.83115 17.4048 6.94688 17.3495 7.07037 17.321C7.19387 17.2924 7.32213 17.2913 7.44611 17.3177C7.57009 17.3441 7.68677 17.3974 7.78791 17.4738C10.6252 19.5992 12.4517 19.0197 12.5276 18.9943C12.6087 18.9657 12.6794 18.9134 12.7307 18.8443C12.7819 18.7751 12.8113 18.6922 12.8151 18.6062C12.8188 18.5203 12.7968 18.4351 12.7519 18.3617C12.7069 18.2883 12.6411 18.2301 12.5628 18.1944C12.3504 18.1013 12.1595 17.9653 12.002 17.7951C12.913 18.0121 13.871 17.9058 14.7122 17.4942C15.5534 17.0827 16.2253 16.3916 16.6131 15.5392C16.6456 15.4569 16.6521 15.3666 16.6316 15.2806C16.6112 15.1945 16.5647 15.1168 16.4987 15.0579C16.4326 14.9991 16.35 14.962 16.2621 14.9517C16.1743 14.9413 16.0853 14.9582 16.0074 15C15.723 15.0748 15.4236 15.0712 15.1411 14.9896C15.9301 14.6467 16.7549 14.3922 17.5999 14.2304ZM3.87805 16.8595C4.46574 17.1167 5.00432 17.4739 5.4698 17.9154L5.19019 18.4906C4.66551 18.008 4.06482 17.6153 3.4123 17.3283L3.87805 16.8595ZM1.76155 19.0477L1.73223 19.0203L2.75137 17.9936C3.51862 18.2799 4.2149 18.7286 4.79246 19.3091L4.18464 20.5609C3.68387 20.5419 3.19677 20.3922 2.77171 20.1268C2.34665 19.8613 1.9984 19.4893 1.76155 19.0477Z" fill="#B6884B"/>
<path d="M11.2556 9.22412C11.3114 9.32322 11.4041 9.39621 11.5135 9.42711C11.623 9.45802 11.7402 9.44433 11.8395 9.38904C12.6147 8.95479 13.3196 8.4056 13.9302 7.76017C14.0714 8.29466 14.0556 8.85852 13.8846 9.38424C13.7135 9.90995 13.3946 10.3752 12.966 10.7243C12.9219 10.7612 12.8857 10.8066 12.8595 10.8578C12.8333 10.909 12.8177 10.9649 12.8135 11.0222C12.8093 11.0795 12.8167 11.1371 12.8352 11.1915C12.8537 11.2459 12.883 11.2961 12.9212 11.339C12.9595 11.3819 13.006 11.4167 13.0579 11.4413C13.1099 11.4659 13.1663 11.4798 13.2237 11.4821C13.2811 11.4845 13.3384 11.4754 13.3923 11.4552C13.4461 11.435 13.4953 11.4042 13.537 11.3646C14.2083 10.7957 14.6616 10.0118 14.8199 9.14623C14.9781 8.28068 14.8315 7.38703 14.405 6.61741C14.3652 6.54839 14.3069 6.49183 14.2367 6.45407C14.1665 6.41631 14.0872 6.39884 14.0077 6.40361C13.9281 6.40838 13.8515 6.43521 13.7863 6.48109C13.7211 6.52697 13.67 6.59009 13.6387 6.66337C13.2993 7.45612 11.9226 8.35829 11.4204 8.63962C11.3712 8.66712 11.3279 8.70406 11.2929 8.74831C11.258 8.79257 11.2321 8.84327 11.2168 8.89753C11.2014 8.95179 11.1969 9.00854 11.2036 9.06454C11.2102 9.12054 11.2281 9.17492 11.2556 9.22412ZM9.07389 8.56208C9.04495 8.48785 8.99592 8.42314 8.93229 8.37521C8.86866 8.32726 8.79294 8.29798 8.71361 8.29063C7.83623 8.22546 6.96336 8.46628 6.2435 8.97211C5.52365 9.47795 5.00128 10.2176 4.76526 11.0651C4.736 11.1727 4.74978 11.2875 4.80368 11.3851C4.85757 11.4828 4.94736 11.5556 5.05401 11.5882C5.16066 11.6207 5.27581 11.6105 5.37506 11.5597C5.47432 11.5088 5.54988 11.4214 5.58576 11.3158C5.72359 10.7804 6.01279 10.2961 6.41873 9.92082C6.82467 9.54555 7.33016 9.29521 7.87468 9.19977C7.54399 10.0244 7.34008 10.8943 7.26989 11.78C7.26552 11.8362 7.27226 11.8927 7.28973 11.9464C7.3072 12 7.33506 12.0496 7.37173 12.0925C7.40839 12.1353 7.45313 12.1706 7.5034 12.1961C7.55367 12.2217 7.60848 12.2371 7.6647 12.2415C7.72092 12.2458 7.77746 12.2391 7.83108 12.2216C7.8847 12.2041 7.93435 12.1763 7.9772 12.1396C8.02005 12.103 8.05526 12.0582 8.08082 12.008C8.10638 11.9577 8.12179 11.9029 8.12616 11.8467C8.17045 11.2737 8.41334 9.64708 8.99244 9.00527C9.04587 8.9462 9.08182 8.87342 9.09624 8.79508C9.11067 8.71675 9.10277 8.63631 9.07389 8.56208Z" fill="#B6884B"/>
</svg>
