<svg width="24" height="24" viewBox="0 0 24 24" fill="none" xmlns="http://www.w3.org/2000/svg">
<g clip-path="url(#clip0_323_3048)">
<path d="M22.875 3H1.125C0.826631 3 0.540483 3.11853 0.329505 3.3295C0.118526 3.54048 0 3.82663 0 4.125L0 16.125C0 16.4234 0.118526 16.7095 0.329505 16.9205C0.540483 17.1315 0.826631 17.25 1.125 17.25H10.5V18.75H9.75C9.2529 18.7506 8.77633 18.9483 8.42483 19.2998C8.07333 19.6513 7.8756 20.1279 7.875 20.625C7.875 20.7245 7.91451 20.8198 7.98483 20.8902C8.05516 20.9605 8.15054 21 8.25 21H15.75C15.8495 21 15.9448 20.9605 16.0152 20.8902C16.0855 20.8198 16.125 20.7245 16.125 20.625C16.1244 20.1279 15.9267 19.6513 15.5752 19.2998C15.2237 18.9483 14.7471 18.7506 14.25 18.75H13.5V17.25H16.125C16.2245 17.25 16.3198 17.2105 16.3902 17.1402C16.4605 17.0698 16.5 16.9745 16.5 16.875C16.5 16.7755 16.4605 16.6802 16.3902 16.6098C16.3198 16.5395 16.2245 16.5 16.125 16.5H1.125C1.02554 16.5 0.930161 16.4605 0.859835 16.3902C0.789509 16.3198 0.75 16.2245 0.75 16.125V4.125C0.75 4.02554 0.789509 3.93016 0.859835 3.85984C0.930161 3.78951 1.02554 3.75 1.125 3.75H22.875C22.9745 3.75 23.0698 3.78951 23.1402 3.85984C23.2105 3.93016 23.25 4.02554 23.25 4.125V7.125C23.25 7.22446 23.2895 7.31984 23.3598 7.39017C23.4302 7.46049 23.5255 7.5 23.625 7.5C23.7245 7.5 23.8198 7.46049 23.8902 7.39017C23.9605 7.31984 24 7.22446 24 7.125V4.125C24 3.82663 23.8815 3.54048 23.6705 3.3295C23.4595 3.11853 23.1734 3 22.875 3ZM15.3109 20.25H8.68913C8.76697 20.0308 8.91071 19.8411 9.10065 19.7068C9.29058 19.5725 9.5174 19.5003 9.75 19.5H14.25C14.4826 19.5003 14.7094 19.5725 14.8994 19.7068C15.0893 19.8411 15.233 20.0308 15.3109 20.25ZM12.75 17.25V18.75H11.25V17.25H12.75Z" fill="#444444"/>
<path d="M22.875 21H18.375C18.0766 21 17.7905 20.8815 17.5795 20.6705C17.3685 20.4595 17.25 20.1734 17.25 19.875V9.375C17.25 9.07663 17.3685 8.79048 17.5795 8.5795C17.7905 8.36853 18.0766 8.25 18.375 8.25H22.875C23.1734 8.25 23.4595 8.36853 23.6705 8.5795C23.8815 8.79048 24 9.07663 24 9.375V19.875C24 20.1734 23.8815 20.4595 23.6705 20.6705C23.4595 20.8815 23.1734 21 22.875 21ZM18.375 9C18.2755 9 18.1802 9.03951 18.1098 9.10983C18.0395 9.18016 18 9.27554 18 9.375V19.875C18 19.9745 18.0395 20.0698 18.1098 20.1402C18.1802 20.2105 18.2755 20.25 18.375 20.25H22.875C22.9745 20.25 23.0698 20.2105 23.1402 20.1402C23.2105 20.0698 23.25 19.9745 23.25 19.875V9.375C23.25 9.27554 23.2105 9.18016 23.1402 9.10983C23.0698 9.03951 22.9745 9 22.875 9H18.375Z" fill="#444444"/>
<path d="M20.625 18C20.2542 18 19.8916 17.89 19.5833 17.684C19.275 17.478 19.0346 17.1851 18.8927 16.8425C18.7508 16.4999 18.7137 16.1229 18.786 15.7592C18.8584 15.3955 19.037 15.0614 19.2992 14.7992C19.5614 14.537 19.8955 14.3584 20.2592 14.286C20.6229 14.2137 20.9999 14.2508 21.3425 14.3927C21.6851 14.5346 21.978 14.775 22.184 15.0833C22.39 15.3916 22.5 15.7542 22.5 16.125C22.4994 16.6221 22.3017 17.0987 21.9502 17.4502C21.5987 17.8017 21.1221 17.9994 20.625 18ZM20.625 15C20.4025 15 20.185 15.066 20 15.1896C19.815 15.3132 19.6708 15.4889 19.5856 15.6945C19.5005 15.9 19.4782 16.1262 19.5216 16.3445C19.565 16.5627 19.6722 16.7632 19.8295 16.9205C19.9868 17.0778 20.1873 17.185 20.4055 17.2284C20.6238 17.2718 20.85 17.2495 21.0555 17.1644C21.2611 17.0792 21.4368 16.935 21.5604 16.75C21.684 16.565 21.75 16.3475 21.75 16.125C21.75 15.8266 21.6315 15.5405 21.4205 15.3295C21.2095 15.1185 20.9234 15 20.625 15Z" fill="#444444"/>
<path d="M19.125 10.5C19.3321 10.5 19.5 10.3321 19.5 10.125C19.5 9.91789 19.3321 9.75 19.125 9.75C18.9179 9.75 18.75 9.91789 18.75 10.125C18.75 10.3321 18.9179 10.5 19.125 10.5Z" fill="#444444"/>
<path d="M20.625 10.5C20.8321 10.5 21 10.3321 21 10.125C21 9.91789 20.8321 9.75 20.625 9.75C20.4179 9.75 20.25 9.91789 20.25 10.125C20.25 10.3321 20.4179 10.5 20.625 10.5Z" fill="#444444"/>
<path d="M22.125 10.5C22.3321 10.5 22.5 10.3321 22.5 10.125C22.5 9.91789 22.3321 9.75 22.125 9.75C21.9179 9.75 21.75 9.91789 21.75 10.125C21.75 10.3321 21.9179 10.5 22.125 10.5Z" fill="#444444"/>
<path d="M19.125 12C19.3321 12 19.5 11.8321 19.5 11.625C19.5 11.4179 19.3321 11.25 19.125 11.25C18.9179 11.25 18.75 11.4179 18.75 11.625C18.75 11.8321 18.9179 12 19.125 12Z" fill="#444444"/>
<path d="M20.625 12C20.8321 12 21 11.8321 21 11.625C21 11.4179 20.8321 11.25 20.625 11.25C20.4179 11.25 20.25 11.4179 20.25 11.625C20.25 11.8321 20.4179 12 20.625 12Z" fill="#444444"/>
<path d="M22.125 12C22.3321 12 22.5 11.8321 22.5 11.625C22.5 11.4179 22.3321 11.25 22.125 11.25C21.9179 11.25 21.75 11.4179 21.75 11.625C21.75 11.8321 21.9179 12 22.125 12Z" fill="#444444"/>
<path d="M19.125 13.5C19.3321 13.5 19.5 13.3321 19.5 13.125C19.5 12.9179 19.3321 12.75 19.125 12.75C18.9179 12.75 18.75 12.9179 18.75 13.125C18.75 13.3321 18.9179 13.5 19.125 13.5Z" fill="#444444"/>
<path d="M20.625 13.5C20.8321 13.5 21 13.3321 21 13.125C21 12.9179 20.8321 12.75 20.625 12.75C20.4179 12.75 20.25 12.9179 20.25 13.125C20.25 13.3321 20.4179 13.5 20.625 13.5Z" fill="#444444"/>
<path d="M22.125 13.5C22.3321 13.5 22.5 13.3321 22.5 13.125C22.5 12.9179 22.3321 12.75 22.125 12.75C21.9179 12.75 21.75 12.9179 21.75 13.125C21.75 13.3321 21.9179 13.5 22.125 13.5Z" fill="#444444"/>
<path d="M19.125 19.5C19.3321 19.5 19.5 19.3321 19.5 19.125C19.5 18.9179 19.3321 18.75 19.125 18.75C18.9179 18.75 18.75 18.9179 18.75 19.125C18.75 19.3321 18.9179 19.5 19.125 19.5Z" fill="#444444"/>
<path d="M20.625 19.5C20.8321 19.5 21 19.3321 21 19.125C21 18.9179 20.8321 18.75 20.625 18.75C20.4179 18.75 20.25 18.9179 20.25 19.125C20.25 19.3321 20.4179 19.5 20.625 19.5Z" fill="#444444"/>
<path d="M22.125 19.5C22.3321 19.5 22.5 19.3321 22.5 19.125C22.5 18.9179 22.3321 18.75 22.125 18.75C21.9179 18.75 21.75 18.9179 21.75 19.125C21.75 19.3321 21.9179 19.5 22.125 19.5Z" fill="#444444"/>
</g>
<defs>
<clipPath id="clip0_323_3048">
<rect width="24" height="24" fill="white"/>
</clipPath>
</defs>
</svg>
